<?xml version="1.0" encoding="UTF-8" standalone="no"?>
<!-- Created with Inkscape (http://www.inkscape.org/) -->

<svg
   xmlns:dc="http://purl.org/dc/elements/1.1/"
   xmlns:cc="http://creativecommons.org/ns#"
   xmlns:rdf="http://www.w3.org/1999/02/22-rdf-syntax-ns#"
   xmlns:svg="http://www.w3.org/2000/svg"
   xmlns="http://www.w3.org/2000/svg"
   xmlns:sodipodi="http://sodipodi.sourceforge.net/DTD/sodipodi-0.dtd"
   xmlns:inkscape="http://www.inkscape.org/namespaces/inkscape"
   width="210mm"
   height="297mm"
   viewBox="0 0 744.09448819 1052.3622047"
   id="svg4152"
   version="1.1"
   inkscape:version="0.91 r13725"
   sodipodi:docname="draw_object.svg">
  <defs
     id="defs4154">
    <inkscape:path-effect
       effect="spiro"
       id="path-effect5004"
       is_visible="true" />
    <marker
       inkscape:stockid="Arrow1Lend"
       orient="auto"
       refY="0.0"
       refX="0.0"
       id="Arrow1Lend"
       style="overflow:visible;"
       inkscape:isstock="true">
      <path
         id="path4711"
         d="M 0.0,0.0 L 5.0,-5.0 L -12.5,0.0 L 5.0,5.0 L 0.0,0.0 z "
         style="fill-rule:evenodd;stroke:#000000;stroke-width:1pt;stroke-opacity:1;fill:#000000;fill-opacity:1"
         transform="scale(0.8) rotate(180) translate(12.5,0)" />
    </marker>
    <inkscape:path-effect
       effect="spiro"
       id="path-effect4702"
       is_visible="true" />
    <inkscape:path-effect
       effect="spiro"
       id="path-effect5004-1"
       is_visible="true" />
    <inkscape:path-effect
       effect="spiro"
       id="path-effect5004-6"
       is_visible="true" />
  </defs>
  <sodipodi:namedview
     id="base"
     pagecolor="#ffffff"
     bordercolor="#666666"
     borderopacity="1.0"
     inkscape:pageopacity="0.0"
     inkscape:pageshadow="2"
     inkscape:zoom="2.0231707"
     inkscape:cx="241.53023"
     inkscape:cy="956.30635"
     inkscape:document-units="px"
     inkscape:current-layer="layer1"
     showgrid="false"
     inkscape:window-width="1280"
     inkscape:window-height="676"
     inkscape:window-x="0"
     inkscape:window-y="1"
     inkscape:window-maximized="1" />
  <metadata
     id="metadata4157">
    <rdf:RDF>
      <cc:Work
         rdf:about="">
        <dc:format>image/svg+xml</dc:format>
        <dc:type
           rdf:resource="http://purl.org/dc/dcmitype/StillImage" />
        <dc:title></dc:title>
      </cc:Work>
    </rdf:RDF>
  </metadata>
  <g
     inkscape:label="Layer 1"
     inkscape:groupmode="layer"
     id="layer1">
    <ellipse
       style="fill:#ffffff;stroke:#000000;stroke-width:0.69999999;stroke-miterlimit:4;stroke-dasharray:none;stroke-dashoffset:0;stroke-opacity:1"
       id="path5060"
       cx="335.35715"
       cy="102.36221"
       rx="29.642857"
       ry="4.2857141" />
    <ellipse
       style="fill:#ffffff;stroke:#000000;stroke-width:0.69999999;stroke-miterlimit:4;stroke-dasharray:none;stroke-dashoffset:0;stroke-opacity:1"
       id="path5054"
       cx="257.14285"
       cy="102.71935"
       rx="47.142857"
       ry="4.6428571" />
    <path
       style="fill:none;fill-rule:evenodd;stroke:#000000;stroke-width:0.60483247;stroke-linecap:butt;stroke-linejoin:miter;stroke-miterlimit:4;stroke-dasharray:none;stroke-opacity:1;marker-end:url(#Arrow1Lend)"
       d="m 174.59012,102.3622 253.8359,0"
       id="path4700"
       inkscape:path-effect="#path-effect4702"
       inkscape:original-d="m 174.59012,102.3622 c 253.8359,0 253.8359,0 253.8359,0"
       inkscape:connector-curvature="0" />
    <path
       style="fill:none;fill-rule:evenodd;stroke:#000000;stroke-width:1px;stroke-linecap:butt;stroke-linejoin:miter;stroke-opacity:1"
       d="m 209.28571,95.933632 0,14.285718"
       id="path5002"
       inkscape:path-effect="#path-effect5004"
       inkscape:original-d="m 209.28571,95.933632 c 0,13.571428 0,14.285718 0,14.285718"
       inkscape:connector-curvature="0" />
    <path
       style="fill:none;fill-rule:evenodd;stroke:#000000;stroke-width:1px;stroke-linecap:butt;stroke-linejoin:miter;stroke-opacity:1"
       d="m 304.28571,95.933491 0,14.285709"
       id="path5002-1"
       inkscape:path-effect="#path-effect5004-1"
       inkscape:original-d="m 304.28571,95.933491 c 0,13.571419 0,14.285709 0,14.285709"
       inkscape:connector-curvature="0" />
    <path
       style="fill:none;fill-rule:evenodd;stroke:#000000;stroke-width:1px;stroke-linecap:butt;stroke-linejoin:miter;stroke-opacity:1"
       d="m 365.714,95.93349 0,14.28571"
       id="path5002-5"
       inkscape:path-effect="#path-effect5004-6"
       inkscape:original-d="m 365.714,95.93349 c 0,13.57142 0,14.28571 0,14.28571"
       inkscape:connector-curvature="0" />
    <text
       xml:space="preserve"
       style="font-style:normal;font-weight:normal;font-size:16.25px;line-height:125%;font-family:sans-serif;letter-spacing:0px;word-spacing:0px;fill:#000000;fill-opacity:1;stroke:none;stroke-width:1px;stroke-linecap:butt;stroke-linejoin:miter;stroke-opacity:1"
       x="424.62628"
       y="118.68227"
       id="text5062"
       sodipodi:linespacing="125%"><tspan
         sodipodi:role="line"
         id="tspan5064"
         x="424.62628"
         y="118.68227"
         style="font-size:12.5px">$t$</tspan></text>
    <text
       xml:space="preserve"
       style="font-style:normal;font-weight:normal;font-size:16.25px;line-height:125%;font-family:sans-serif;letter-spacing:0px;word-spacing:0px;fill:#000000;fill-opacity:1;stroke:none;stroke-width:1px;stroke-linecap:butt;stroke-linejoin:miter;stroke-opacity:1"
       x="255.16275"
       y="93.130722"
       id="text5066"
       sodipodi:linespacing="125%"><tspan
         sodipodi:role="line"
         id="tspan5068"
         x="255.16275"
         y="93.130722"
         style="font-size:12.5px">$x_i$</tspan></text>
    <text
       xml:space="preserve"
       style="font-style:normal;font-weight:normal;font-size:12.5px;line-height:125%;font-family:sans-serif;letter-spacing:0px;word-spacing:0px;fill:#000000;fill-opacity:1;stroke:none;stroke-width:1px;stroke-linecap:butt;stroke-linejoin:miter;stroke-opacity:1"
       x="255.02773"
       y="73.121696"
       id="text5121"
       sodipodi:linespacing="125%"><tspan
         sodipodi:role="line"
         id="tspan5123"
         x="255.02773"
         y="73.121696">$\Delta t_n$</tspan></text>
    <text
       xml:space="preserve"
       style="font-style:normal;font-weight:normal;font-size:16.25px;line-height:125%;font-family:sans-serif;letter-spacing:0px;word-spacing:0px;fill:#000000;fill-opacity:1;stroke:none;stroke-width:1px;stroke-linecap:butt;stroke-linejoin:miter;stroke-opacity:1"
       x="332.73657"
       y="73.067444"
       id="text5125"
       sodipodi:linespacing="125%"><tspan
         sodipodi:role="line"
         id="tspan5127"
         x="332.73657"
         y="73.067444"
         style="font-size:12.5px">$\Delta t_r$</tspan></text>
    <text
       xml:space="preserve"
       style="font-style:normal;font-weight:normal;font-size:16.25px;line-height:125%;font-family:sans-serif;letter-spacing:0px;word-spacing:0px;fill:#000000;fill-opacity:1;stroke:none;stroke-width:1px;stroke-linecap:butt;stroke-linejoin:miter;stroke-opacity:1"
       x="368.18265"
       y="119.50506"
       id="text5129"
       sodipodi:linespacing="125%"><tspan
         sodipodi:role="line"
         id="tspan5131"
         x="368.18265"
         y="119.50506"
         style="font-size:12.5px">$t_i$</tspan></text>
    <text
       xml:space="preserve"
       style="font-style:normal;font-weight:normal;font-size:40px;line-height:125%;font-family:sans-serif;letter-spacing:0px;word-spacing:0px;fill:#000000;fill-opacity:1;stroke:none;stroke-width:1px;stroke-linecap:butt;stroke-linejoin:miter;stroke-opacity:1"
       x="-0.69900852"
       y="134.56403"
       id="text3511"
       sodipodi:linespacing="125%"><tspan
         sodipodi:role="line"
         id="tspan3513"
         x="-0.69900852"
         y="134.56403" /></text>
    <text
       sodipodi:linespacing="125%"
       id="text3515"
       y="92.636452"
       x="335.72937"
       style="font-style:normal;font-weight:normal;font-size:16.25px;line-height:125%;font-family:sans-serif;letter-spacing:0px;word-spacing:0px;fill:#000000;fill-opacity:1;stroke:none;stroke-width:1px;stroke-linecap:butt;stroke-linejoin:miter;stroke-opacity:1"
       xml:space="preserve"><tspan
         style="font-size:12.5px"
         y="92.636452"
         x="335.72937"
         id="tspan3517"
         sodipodi:role="line">$y_i$</tspan></text>
  </g>
  <g
     inkscape:groupmode="layer"
     id="layer2"
     inkscape:label="Layer 2">
    <path
       id="path3469"
       d="m 304.44592,87.429741 c 0.41802,-1.512883 1.84414,-2.940552 3.70048,-3.697167 1.0325,-0.414386 2.55686,-0.789252 3.87254,-0.95384 0.92207,-0.111668 1.79469,-0.138129 5.81492,-0.190701 7.47415,-0.09208 9.87114,-0.28931 12.53909,-1.026337 2.54467,-0.697171 3.86035,-1.835525 4.19233,-3.618135 0.0861,-0.434316 0.22153,-0.822241 0.30757,-0.874813 0.0983,-0.05256 0.27031,-0.0725 0.4546,-0.04603 0.29538,0.0395 0.30758,0.0725 0.39362,0.644599 0.43021,3.019579 3.19641,4.308777 10.24033,4.762675 0.90988,0.0591 3.57719,0.12507 6.41723,0.157711 4.15508,0.05256 5.01552,0.08556 5.96198,0.19723 3.68826,0.44084 6.26953,1.828653 7.24104,3.887862 0.31977,0.677583 0.52846,1.651011 0.39361,1.920739 -0.0861,0.1907 -0.36856,0.269727 -0.68834,0.177641 -0.17208,-0.04603 -0.23373,-0.177641 -0.30757,-0.638069 -0.33197,-2.216921 -2.04061,-3.729803 -5.01551,-4.459958 -1.65983,-0.401332 -2.065,-0.434316 -6.84742,-0.499947 -7.31426,-0.09209 -10.04385,-0.276251 -12.69898,-0.855225 -2.09005,-0.447369 -3.73706,-1.223567 -4.60969,-2.157824 -0.28252,-0.302712 -0.51625,-0.592027 -0.51625,-0.63807 0,-0.05256 -0.0617,-0.09209 -0.12264,-0.09209 -0.0738,0 -0.12265,0.0395 -0.12265,0.09209 0,0.04603 -0.23373,0.335358 -0.51624,0.63807 -0.59011,0.638069 -1.91799,1.394685 -3.08534,1.763027 -1.54877,0.486883 -3.71266,0.82877 -6.53986,1.026337 -1.51217,0.105145 -6.52767,0.223685 -9.58861,0.230214 -4.47484,0.0065 -7.32644,0.841829 -8.86366,2.605199 -0.56568,0.651123 -0.88481,1.322182 -1.0325,2.157824 -0.0738,0.394797 -0.15988,0.743209 -0.19649,0.769669 -0.0983,0.08556 -0.59008,0.07215 -0.76217,-0.01991 -0.17531,-0.09174 -0.17531,-0.670711 -0.0154,-1.262738 z"
       inkscape:connector-curvature="0" />
    <path
       inkscape:connector-curvature="0"
       d="m 209.11731,87.429741 c 0.65246,-1.512883 2.87845,-2.940552 5.77593,-3.697167 1.6116,-0.414386 3.99092,-0.789252 6.04452,-0.95384 1.43923,-0.111668 2.80127,-0.138129 9.07631,-0.190701 11.66611,-0.09208 15.40748,-0.28931 19.5718,-1.026337 3.97189,-0.697171 6.02549,-1.835525 6.54365,-3.618135 0.13432,-0.434316 0.34577,-0.822241 0.48008,-0.874813 0.15338,-0.05256 0.42193,-0.0725 0.70958,-0.04603 0.46104,0.0395 0.48008,0.0725 0.61439,0.644599 0.67148,3.019579 4.98915,4.308777 15.98374,4.762675 1.4202,0.0591 5.58351,0.12507 10.01642,0.157711 6.48553,0.05256 7.82854,0.08556 9.30584,0.19723 5.75687,0.44084 9.78588,1.828653 11.30228,3.887862 0.49911,0.677583 0.82485,1.651011 0.61437,1.920739 -0.13432,0.1907 -0.57527,0.269727 -1.07439,0.177641 -0.26861,-0.04603 -0.36483,-0.177641 -0.48009,-0.638069 -0.51816,-2.216921 -3.18512,-3.729803 -7.82852,-4.459958 -2.59078,-0.401332 -3.22319,-0.434316 -10.6879,-0.499947 -11.41656,-0.09209 -15.67709,-0.276251 -19.82137,-0.855225 -3.2623,-0.447369 -5.83304,-1.223567 -7.1951,-2.157824 -0.44097,-0.302712 -0.80579,-0.592027 -0.80579,-0.63807 0,-0.05256 -0.0964,-0.09209 -0.19144,-0.09209 -0.11525,0 -0.19143,0.0395 -0.19143,0.09209 0,0.04603 -0.36481,0.335358 -0.80578,0.63807 -0.92108,0.638069 -2.99372,1.394685 -4.8158,1.763027 -2.41741,0.486883 -5.79495,0.82877 -10.20783,1.026337 -2.36028,0.105145 -10.18881,0.223685 -14.96651,0.230214 -6.98462,0.0065 -11.43558,0.841829 -13.83496,2.605199 -0.88294,0.651123 -1.38107,1.322182 -1.61161,2.157824 -0.11524,0.394797 -0.24953,0.743209 -0.30669,0.769669 -0.15338,0.08556 -0.92103,0.07215 -1.18963,-0.01991 -0.27363,-0.09174 -0.27363,-0.670711 -0.0241,-1.262738 z"
       id="path3471" />
  </g>
</svg>
